<svg xmlns="http://www.w3.org/2000/svg" viewBox="0 0 486.812 117.941"><path d="m29.137 55.571 1.718-4.743c4.641-13.2 13.5-26.281 32.8-26.281H111.8l-4.3 11.747H69.391c-7.852 0-12.045 4.349-15.923 12.078l72.8.007C120.879 20.866 94.911 0 63.658 0 28.5 0 0 26.4 0 58.971c0 1.082.037 2.156.1 3.225l98.079-.01-1.721 4.744c-4.641 13.2-13.5 26.277-32.8 26.277H15.513L19.8 81.459h38.12c7.852 0 12.037-4.346 15.919-12.073H1.011c5.308 27.6 31.329 48.555 62.647 48.555 35.157 0 63.655-26.4 63.655-58.97 0-1.145-.045-2.281-.113-3.409Z" style="fill:#17288b"/><path d="M192.681 48.043h-8.211v5.608h8.211v32.205h8.153V34.328h-8.153v13.715zM176.8 40.509a7.316 7.316 0 0 0-7.024-6.181h-7.992l-10.63 40.367h8.155l9.134-34.752h.068l9.141 34.752h8.142ZM486.812 48.043h-8.2V34.328h-8.145v51.528h8.145V53.651h8.2v-5.608zM297.297 55.254h-8.141v21.101h-6.159V55.254h-8.149v21.101h-8.753v5.619h48.649v-5.619h-17.447V55.254zM350.668 56.028h16.325v-5.611h-29.817c-1.421 0-2.031-1.027-2.188-2.424h32v-5.628h-32.053v-2.422h32.058v-5.615h-40.2v14.021a7.446 7.446 0 0 0 7.176 7.679h8.563v3.285h-20.95v5.616h50.04v-5.616h-20.95ZM346.6 66.393c-11.55 0-18.933 5.38-18.933 12.006s7.383 12 18.933 12 18.941-5.382 18.941-12-7.387-12.006-18.941-12.006Zm0 18.375c-6.586 0-10.8-2.845-10.8-6.369s4.215-6.379 10.8-6.379 10.8 2.849 10.8 6.379-4.21 6.369-10.8 6.369ZM402.403 49.321h-8.127v9.992h-16.595v5.616h47.771v-5.616h-23.049v-9.992zM401.562 66.393c-11.562 0-18.936 5.38-18.936 12.006s7.374 12 18.936 12 18.944-5.382 18.944-12-7.39-12.006-18.944-12.006Zm0 18.375c-6.592 0-10.8-2.845-10.8-6.369s4.212-6.379 10.8-6.379 10.8 2.849 10.8 6.379-4.216 6.369-10.8 6.369ZM210.281 60.874h20.7v3.27h-17.212v5.614h34.436v2.431h-34.436v5.975a7.453 7.453 0 0 0 7.173 7.692h35.4v-5.624h-32.38c-1.437 0-1.9-1.027-2.017-2.425h34.394V64.144h-17.2v-3.27h20.7v-5.62h-49.558ZM235.058 53.791c11.552 0 18.94-5.382 18.94-12s-7.388-12-18.94-12-18.937 5.372-18.937 12 7.392 12 18.937 12Zm0-18.384c6.585 0 10.805 2.861 10.805 6.38s-4.22 6.383-10.805 6.383-10.8-2.856-10.8-6.383 4.212-6.38 10.8-6.38Z" style="fill:#6d6f71"/><path d="M300.486 39.992a3.151 3.151 0 0 1 3.043 3.259v27.163h8.139V42.066a7.436 7.436 0 0 0-7.168-7.686h-34.551v5.612ZM410.81 39.943a3.146 3.146 0 0 1 3.049 3.251v13.447h8.129V42.012a7.443 7.443 0 0 0-7.158-7.684h-33.663v5.615ZM449.919 34.328h-8L431.3 74.695h8.14l9.134-34.752h.077l9.134 34.752h8.148l-8.991-34.153a7.32 7.32 0 0 0-7.023-6.214Z" style="fill:#6d6f71"/></svg>