<svg xmlns="http://www.w3.org/2000/svg" viewBox="0 0 127.941 117.941"><path d="m29.137 55.571 1.718-4.743c4.641-13.2 13.5-26.281 32.8-26.281H111.8l-4.3 11.747H69.391c-7.852 0-12.045 4.349-15.923 12.078l72.8.007C120.879 20.866 94.911 0 63.658 0 28.5 0 0 26.4 0 58.971c0 1.082.037 2.156.1 3.225l98.079-.01-1.721 4.744c-4.641 13.2-13.5 26.277-32.8 26.277H15.513L19.8 81.459h38.12c7.852 0 12.037-4.346 15.919-12.073H1.011c5.308 27.6 31.329 48.555 62.647 48.555 35.157 0 63.655-26.4 63.655-58.97 0-1.145-.045-2.281-.113-3.409Z" style="fill:#17288b"/></svg>
